<svg width="50" height="50" viewBox="0 0 101 101" fill="none" xmlns="http://www.w3.org/2000/svg">
<path d="M40.7712 50.5213L78.555 12.7359C79.5954 11.6979 80.1677 10.3102 80.1677 8.83052C80.1677 7.35001 79.5954 5.96311 78.555 4.92354L75.2442 1.61436C74.2055 0.573154 72.8169 0 71.3372 0C69.8575 0 68.4706 0.573154 67.4311 1.61436L22.4434 46.6012C21.3997 47.6441 20.8282 49.0376 20.8323 50.5189C20.8282 52.0068 21.3989 53.3986 22.4434 54.4423L67.3892 99.3856C68.4288 100.427 69.8156 101 71.2962 101C72.7759 101 74.1628 100.427 75.2031 99.3856L78.5131 96.0765C80.667 93.9226 80.667 90.4163 78.5131 88.2633L40.7712 50.5213Z" fill="white"/>
</svg>
