<svg width="18" height="17" viewBox="0 0 18 17" fill="none" xmlns="http://www.w3.org/2000/svg">
<g clip-path="url(#clip0)">
<path d="M6.51105 1.99219C6.32777 1.99219 6.17902 2.14094 6.17902 2.32422C6.17902 2.5075 6.32777 2.65625 6.51105 2.65625C6.69433 2.65625 6.84308 2.5075 6.84308 2.32422C6.84308 2.14094 6.69433 1.99219 6.51105 1.99219Z" fill="black"/>
<path d="M8.50325 4.64844C8.32017 4.64844 8.17122 4.49949 8.17122 4.31641C8.17122 4.13332 8.32017 3.98438 8.50325 3.98438C8.62086 3.98438 8.74504 4.04437 8.86234 4.15793C8.99419 4.28546 9.20434 4.28197 9.33187 4.15022C9.45937 4.01844 9.45592 3.80823 9.32417 3.6807C9.15566 3.51764 8.98706 3.4254 8.83528 3.37506V2.98828C8.83528 2.8049 8.6866 2.65625 8.50325 2.65625C8.31991 2.65625 8.17122 2.8049 8.17122 2.98828V3.37742C7.78477 3.51448 7.50716 3.88354 7.50716 4.31641C7.50716 4.86565 7.95401 5.3125 8.50325 5.3125C8.68634 5.3125 8.83528 5.46145 8.83528 5.64453C8.83528 5.82761 8.68634 5.97656 8.50325 5.97656C8.36141 5.97656 8.20828 5.88735 8.07211 5.72538C7.95414 5.585 7.74466 5.5669 7.60431 5.68491C7.46393 5.80291 7.44583 6.01236 7.5638 6.1527C7.74131 6.36384 7.95002 6.51097 8.17122 6.58514V6.97266C8.17122 7.15604 8.31991 7.30469 8.50325 7.30469C8.6866 7.30469 8.83528 7.15604 8.83528 6.97266V6.58352C9.22174 6.44645 9.49935 6.0774 9.49935 5.64453C9.49935 5.09529 9.0525 4.64844 8.50325 4.64844Z" fill="black"/>
<path d="M15.6751 4.84766C14.9428 4.84766 14.347 5.44345 14.347 6.17578V8.54217C13.9059 8.42858 13.4192 8.54589 13.0759 8.88911L10.8492 11.1159C10.5354 11.4292 10.3626 11.8462 10.3626 12.2901V14.2441H10.0306C9.84723 14.2441 9.69855 14.3928 9.69855 14.5762V16.668C9.69855 16.8513 9.84723 17 10.0306 17H14.679C14.8624 17 15.011 16.8513 15.011 16.668V14.5762C15.011 14.3928 14.8624 14.2441 14.679 14.2441H14.347V14.0874C14.347 14.0001 14.3824 13.9146 14.4443 13.8527L16.5169 11.7802C16.8305 11.4665 17.0032 11.0495 17.0032 10.6061V6.17578C17.0032 5.44345 16.4074 4.84766 15.6751 4.84766ZM14.347 16.3359H10.3626V14.9082H14.347V16.3359ZM16.3392 10.6061C16.3392 10.8722 16.2355 11.1224 16.0473 11.3106L13.9747 13.3832C13.7893 13.5686 13.6829 13.8253 13.6829 14.0874V14.2441H11.0267V12.2901C11.0267 12.0238 11.1303 11.7736 11.3186 11.5856L13.5455 9.35867C13.7947 9.10941 14.1951 9.09822 14.4569 9.33317C14.4588 9.33483 14.4607 9.33652 14.4626 9.33815C14.4702 9.34462 14.4773 9.35159 14.4845 9.35877C14.6099 9.48411 14.679 9.65079 14.679 9.82812C14.679 10.0055 14.6099 10.1721 14.4844 10.2976L12.8345 11.9474C12.7049 12.0771 12.7049 12.2873 12.8345 12.417C12.9642 12.5467 13.1744 12.5467 13.3041 12.417L14.9539 10.7673C15.2049 10.5165 15.3431 10.183 15.3431 9.82812C15.3431 9.50141 15.2256 9.19288 15.011 8.95023V6.17578C15.011 5.80962 15.3089 5.51172 15.6751 5.51172C16.0413 5.51172 16.3392 5.80962 16.3392 6.17578V10.6061Z" fill="black"/>
<path d="M6.97589 14.2441H6.64386V12.2901C6.64386 11.8462 6.47107 11.4292 6.1575 11.116L3.93057 8.88911C3.58728 8.54582 3.10056 8.42855 2.65948 8.54217V6.17578C2.65948 5.44345 2.06369 4.84766 1.33136 4.84766C0.599032 4.84766 0.00323486 5.44345 0.00323486 6.17578V10.6061C0.00323486 11.0495 0.175958 11.4665 0.489594 11.7802L2.56213 13.8527C2.62402 13.9146 2.65948 14.0001 2.65948 14.0874V14.2441H2.32745C2.14411 14.2441 1.99542 14.3928 1.99542 14.5762V16.668C1.99542 16.8513 2.14411 17 2.32745 17H6.97589C7.15924 17 7.30792 16.8513 7.30792 16.668V14.5762C7.30792 14.3928 7.15924 14.2441 6.97589 14.2441ZM0.959186 11.3106C0.770958 11.1224 0.667297 10.8722 0.667297 10.6061V6.17578C0.667297 5.80962 0.965196 5.51172 1.33136 5.51172C1.69752 5.51172 1.99542 5.80962 1.99542 6.17578V8.9502C1.78086 9.19285 1.66339 9.50134 1.66339 9.82812C1.66339 10.183 1.80162 10.5165 2.0525 10.7671L3.71265 12.4273C3.84235 12.557 4.05252 12.557 4.18225 12.4273C4.3119 12.2976 4.3119 12.0874 4.18225 11.9577L2.52199 10.2975C2.39655 10.1721 2.32745 10.0055 2.32745 9.82812C2.32745 9.65079 2.39655 9.48411 2.52189 9.3588C2.52913 9.35159 2.53627 9.34462 2.54381 9.33815L2.54952 9.33317C2.81132 9.09822 3.21172 9.10944 3.46094 9.35867L5.68804 11.5857C5.87617 11.7736 5.97976 12.0237 5.97976 12.2901V14.2441H3.32351V14.0874C3.32355 13.8253 3.2172 13.5686 3.03172 13.3832L0.959186 11.3106ZM6.64386 16.3359H2.65948V14.9082H6.64386V16.3359Z" fill="black"/>
<path d="M8.50323 0C5.757 0 3.52277 2.23424 3.52277 4.98047C3.52277 7.7267 5.757 9.96094 8.50323 9.96094C11.2495 9.96094 13.4837 7.7267 13.4837 4.98047C13.4837 2.23424 11.2495 0 8.50323 0ZM8.50323 9.29688C6.12314 9.29688 4.18683 7.36054 4.18683 4.98047C4.18683 2.6004 6.12314 0.664062 8.50323 0.664062C10.8833 0.664062 12.8196 2.6004 12.8196 4.98047C12.8196 7.36054 10.8833 9.29688 8.50323 9.29688Z" fill="black"/>
<path d="M10.796 2.13725C9.93206 1.43965 8.8013 1.17655 7.69417 1.41525C7.51491 1.4539 7.40092 1.63054 7.43957 1.8098C7.47822 1.98903 7.6549 2.10292 7.83413 2.06437C8.74419 1.86814 9.67175 2.083 10.3789 2.65389C11.086 3.22482 11.4915 4.07279 11.4915 4.98047C11.4915 6.62821 10.151 7.96875 8.50323 7.96875C6.8555 7.96875 5.51495 6.62821 5.51495 4.98047C5.51495 4.48827 5.63714 4.00038 5.8683 3.5696C5.95499 3.40803 5.8943 3.20676 5.73273 3.12003C5.57113 3.0333 5.36982 3.09403 5.28316 3.2556C5.00037 3.78263 4.85089 4.37906 4.85089 4.98047C4.85089 6.99437 6.48933 8.63281 8.50323 8.63281C10.5171 8.63281 12.1556 6.99437 12.1556 4.98047C12.1556 3.87112 11.6601 2.83482 10.796 2.13725Z" fill="black"/>
</g>
<defs>
<clipPath id="clip0">
<rect width="17" height="17" fill="white" transform="translate(0.00323486)"/>
</clipPath>
</defs>
</svg>
