<svg width="297" height="190" viewBox="0 0 297 190" fill="none" xmlns="http://www.w3.org/2000/svg">
<g clip-path="url(#clip0)">
<rect width="297" height="190" rx="4" fill="#0C4BEF"/>
<path d="M177.08 89.2252C177.019 89.5559 176.984 89.891 176.973 90.2261V97.1102C176.982 99.9473 178.744 102.483 181.402 103.48V113.609C181.414 117 184.081 119.788 187.468 119.948V178.466C184.081 178.628 181.414 181.415 181.402 184.805V194.904C178.739 195.928 176.978 198.483 176.973 201.334V208.068C176.973 209.323 177.993 210.342 179.249 210.342H332.65C333.905 210.342 334.924 209.323 334.924 208.068V201.334C334.919 198.481 333.159 195.926 330.496 194.904V184.745C330.484 181.354 327.816 178.567 324.431 178.407V119.948C327.816 119.788 330.484 117 330.496 113.609V103.48C333.153 102.483 334.915 99.9473 334.924 97.1102V90.2715C334.914 89.9364 334.879 89.6012 334.818 89.2705C335.961 89.7771 337.299 89.2617 337.805 88.118C338.312 86.9754 337.796 85.6382 336.654 85.1305L256.996 43.263C256.331 42.9123 255.537 42.9123 254.872 43.263L175.215 85.0852C174.103 85.6725 173.677 87.0473 174.262 88.1589C174.798 89.1743 176.006 89.6322 177.08 89.2252ZM185.951 107.422V103.919H212.185V107.392L185.951 107.422ZM244.363 119.964V178.466C240.977 178.628 238.31 181.415 238.298 184.805V194.48H216.703V184.805C216.691 181.415 214.024 178.628 210.637 178.466V119.948C214.024 119.788 216.691 117 216.703 113.609V103.919H238.267V113.595C238.272 116.992 240.941 119.786 244.333 119.948L244.363 119.964ZM242.847 107.422V103.919H269.081V107.392L242.847 107.422ZM301.26 119.964V178.466C297.873 178.628 295.205 181.415 295.193 184.805V194.48H273.6V184.805C273.588 181.415 270.92 178.628 267.534 178.466V119.948C270.92 119.788 273.588 117 273.6 113.609V103.919H295.163V113.595C295.168 116.992 297.837 119.786 301.229 119.948L301.26 119.964ZM299.744 107.422V103.919H325.977V107.392L299.744 107.422ZM325.977 191.008V194.48H299.713V191.008H325.977ZM269.081 191.008V194.48H242.817V191.008H269.081ZM246.607 115.444H244.636C243.631 115.444 242.817 114.63 242.817 113.625V111.971H269.05V113.625C269.05 114.63 268.236 115.444 267.231 115.444H246.607ZM263 119.993V178.436H248.883V119.993H263ZM246.607 182.986H267.231C268.236 182.986 269.05 183.8 269.05 184.805V186.459H242.817V184.805C242.817 183.8 243.631 182.986 244.636 182.986H246.607ZM212.155 191.008V194.48H185.92V191.008H212.155ZM185.92 113.67V111.971H212.155V113.625C212.155 114.63 211.341 115.444 210.334 115.444H187.694C186.701 115.42 185.911 114.603 185.92 113.609V113.67ZM206.089 120.039V178.436H191.986V119.993L206.089 120.039ZM185.92 184.852C185.92 183.845 186.734 183.031 187.74 183.031H210.334C211.341 183.031 212.155 183.845 212.155 184.852V186.504H185.92V184.852ZM330.375 201.426V205.883H181.493V201.426C181.493 200.127 182.545 199.074 183.843 199.074H328.024C329.304 199.074 330.35 200.1 330.375 201.379V201.426ZM325.947 184.852V186.504H299.713V184.852C299.713 183.845 300.527 183.031 301.532 183.031H324.173C325.143 183.055 325.923 183.835 325.947 184.805V184.852ZM305.778 178.482V119.993H319.896V178.436L305.778 178.482ZM325.947 113.67C325.947 114.676 325.133 115.49 324.128 115.49H301.548C300.542 115.49 299.728 114.676 299.728 113.67V111.971H325.962L325.947 113.67ZM255.934 47.8122L323.672 83.4173H188.195L255.934 47.8122ZM181.493 90.2715C181.493 89.0161 182.511 87.9974 183.767 87.9974H328.101C329.356 87.9974 330.375 89.0161 330.375 90.2715V97.1567C330.375 98.4121 329.356 99.4308 328.101 99.4308H183.767C182.511 99.4308 181.493 98.4121 181.493 97.1567V90.2715Z" fill="white" fill-opacity="0.07"/>
</g>
<defs>
<clipPath id="clip0">
<rect width="297" height="190" fill="white"/>
</clipPath>
</defs>
</svg>
