<svg width="1152" height="535" viewBox="0 0 1152 535" fill="none" xmlns="http://www.w3.org/2000/svg">
<g clip-path="url(#clip0)">
<rect width="1152" height="535" fill="#0C4BEF"/>
<path d="M746.873 243.203C746.658 244.371 746.537 245.554 746.498 246.737V271.043C746.529 281.059 752.75 290.013 762.134 293.532V329.294C762.177 341.267 771.592 351.108 783.549 351.674V558.28C771.592 558.85 762.177 568.69 762.134 580.659V616.317C752.73 619.929 746.514 628.949 746.498 639.017V662.791C746.498 667.223 750.098 670.82 754.531 670.82H1296.13C1300.56 670.82 1304.16 667.223 1304.16 662.791V639.017C1304.15 628.946 1297.93 619.925 1288.53 616.317V580.449C1288.49 568.476 1279.07 558.635 1267.11 558.069V351.674C1279.07 351.108 1288.49 341.267 1288.53 329.294V293.532C1297.91 290.013 1304.13 281.059 1304.16 271.043V246.898C1304.13 245.714 1304 244.531 1303.79 243.363C1307.82 245.152 1312.54 243.332 1314.33 239.294C1316.12 235.26 1314.3 230.539 1310.27 228.747L1029.03 80.9284C1026.68 79.6905 1023.87 79.6905 1021.53 80.9284L740.289 228.587C736.364 230.66 734.861 235.514 736.927 239.439C738.817 243.024 743.081 244.64 746.873 243.203ZM778.195 307.449V295.082H870.816V307.344L778.195 307.449ZM984.426 351.729V558.28C972.468 558.85 963.053 568.69 963.01 580.659V614.817H886.768V580.659C886.725 568.69 877.31 558.85 865.353 558.28V351.674C877.31 351.108 886.725 341.267 886.768 329.294V295.082H962.901V329.244C962.921 341.236 972.343 351.1 984.32 351.674L984.426 351.729ZM979.072 307.449V295.082H1071.7V307.344L979.072 307.449ZM1185.31 351.729V558.28C1173.35 558.85 1163.93 568.69 1163.89 580.659V614.817H1087.65V580.659C1087.61 568.69 1078.19 558.85 1066.23 558.28V351.674C1078.19 351.108 1087.61 341.267 1087.65 329.294V295.082H1163.78V329.244C1163.8 341.236 1173.22 351.1 1185.2 351.674L1185.31 351.729ZM1179.95 307.449V295.082H1272.57V307.344L1179.95 307.449ZM1272.57 602.559V614.817H1179.84V602.559H1272.57ZM1071.7 602.559V614.817H978.966V602.559H1071.7ZM992.349 335.773H985.39C981.841 335.773 978.966 332.899 978.966 329.349V323.511H1071.59V329.349C1071.59 332.899 1068.71 335.773 1065.16 335.773H992.349ZM1050.23 351.834V558.174H1000.38V351.834H1050.23ZM992.349 574.236H1065.16C1068.71 574.236 1071.59 577.11 1071.59 580.659V586.498H978.966V580.659C978.966 577.11 981.841 574.236 985.39 574.236H992.349ZM870.71 602.559V614.817H778.086V602.559H870.71ZM778.086 329.509V323.511H870.71V329.349C870.71 332.899 867.836 335.773 864.283 335.773H784.35C780.843 335.687 778.055 332.801 778.086 329.294V329.509ZM849.295 351.995V558.174H799.501V351.834L849.295 351.995ZM778.086 580.823C778.086 577.27 780.96 574.396 784.51 574.396H864.283C867.836 574.396 870.71 577.27 870.71 580.823V586.658H778.086V580.823ZM1288.1 639.341V655.078H762.454V639.341C762.454 634.756 766.168 631.039 770.752 631.039H1279.8C1284.32 631.039 1288.01 634.659 1288.1 639.177V639.341ZM1272.47 580.823V586.658H1179.84V580.823C1179.84 577.27 1182.72 574.396 1186.27 574.396H1266.2C1269.63 574.482 1272.38 577.235 1272.47 580.659V580.823ZM1201.26 558.334V351.834H1251.1V558.174L1201.26 558.334ZM1272.47 329.509C1272.47 333.059 1269.59 335.933 1266.04 335.933H1186.32C1182.77 335.933 1179.9 333.059 1179.9 329.509V323.511H1272.52L1272.47 329.509ZM1025.28 96.99L1264.43 222.698H786.119L1025.28 96.99ZM762.454 246.898C762.454 242.465 766.051 238.869 770.483 238.869H1280.07C1284.5 238.869 1288.1 242.465 1288.1 246.898V271.207C1288.1 275.639 1284.5 279.235 1280.07 279.235H770.483C766.051 279.235 762.454 275.639 762.454 271.207V246.898Z" fill="white" fill-opacity="0.1"/>
<path d="M1005.59 159.589H1010.12V140.317H1022.38L1028.63 159.589H1035.56V140.317H1044.2V159.589H1048.66V165.34H1044.2V170.977H1048.66V176.728H1044.2V195.999H1031.9L1025.66 176.728H1018.8V195.999H1010.12V176.728H1005.59V170.977H1010.12V165.34H1005.59V159.589ZM1018.8 170.977H1023.79L1022 165.34H1018.8V170.977ZM1032.36 170.977H1035.56V165.34H1030.49L1032.36 170.977ZM1018.08 153.114L1018.53 159.589H1020.1L1018.08 153.114ZM1036.24 182.897C1036.17 182.237 1036.02 180.181 1035.79 176.728H1034.23L1036.24 182.897Z" fill="white" fill-opacity="0.1"/>
</g>
<defs>
<clipPath id="clip0">
<rect width="1152" height="535" fill="white"/>
</clipPath>
</defs>
</svg>
