<svg width="67" height="67" viewBox="0 0 67 67" fill="none" xmlns="http://www.w3.org/2000/svg">
<circle cx="33.5" cy="33.5" r="33.5" fill="#0036C2"/>
<g clip-path="url(#clip0)">
<path d="M48.8967 22.34L47.3467 20.2733C47.1589 20.045 46.8216 20.0123 46.5933 20.2001C46.5665 20.2221 46.542 20.2466 46.52 20.2733L44.97 22.34C44.9029 22.4294 44.8667 22.5382 44.8667 22.65V46.9333C44.8667 48.0747 45.792 49 46.9334 49C48.0747 49 49 48.0747 49 46.9333V22.65C49 22.5382 48.9638 22.4294 48.8967 22.34ZM47.9667 46.9333C47.9667 47.5041 47.5041 47.9667 46.9334 47.9667C46.3626 47.9667 45.9 47.5041 45.9 46.9333V45.9H47.9667V46.9333ZM47.9667 44.8667H45.9V43.8333H47.9667V44.8667ZM47.9667 42.8H45.9V24.2H47.9667V42.8ZM47.9667 23.1667H45.9V22.822L46.9334 21.4446L47.9667 22.822V23.1667Z" fill="white"/>
<path d="M43.3187 18C43.318 18 43.3174 18 43.3167 18H20.5833C20.298 18 20.0667 18.2313 20.0667 18.5167V27.3517C18.8647 27.5989 18.0016 28.6562 18 29.8833V46.4167C18.0017 47.8427 19.1573 48.9983 20.5833 49H39.1833C39.3203 48.9997 39.4516 48.9453 39.5486 48.8486L43.682 44.7153C43.7252 44.6714 43.7602 44.6201 43.7853 44.5639C43.7925 44.5479 43.7967 44.5324 43.8023 44.5158C43.8172 44.4724 43.8262 44.4273 43.8292 44.3815C43.8292 44.3707 43.8354 44.3608 43.8354 44.35V18.5167C43.8354 18.2313 43.6041 18 43.3187 18ZM33.5 46.4167C33.5 47.2727 32.8061 47.9667 31.95 47.9667H20.5833C19.7273 47.9667 19.0333 47.2727 19.0333 46.4167V29.8833C19.0333 29.0273 19.7273 28.3333 20.5833 28.3333H31.95C32.8061 28.3333 33.5 29.0273 33.5 29.8833V46.4167ZM26.7833 24.2V27.3H23.1667V24.2H26.7833ZM23.1667 23.1667V21.1H26.7833V23.1667H23.1667ZM31.4333 24.2V27.3H27.8167V24.2H31.4333ZM27.8167 23.1667V21.1H31.4333V23.1667H27.8167ZM32.4667 27.3517V24.2H36.0833V31.4333H34.5333V29.8833C34.5318 28.6562 33.6686 27.5989 32.4667 27.3517ZM32.4667 23.1667V21.1H36.0833V23.1667H32.4667ZM39.7 47.2361V44.8667H42.0694L39.7 47.2361ZM42.8 43.8333H39.1833C38.898 43.8333 38.6667 44.0647 38.6667 44.35V47.9667H34.0032C34.3451 47.5221 34.5315 46.9775 34.5333 46.4167V32.4667H41.25C41.5353 32.4667 41.7667 32.2353 41.7667 31.95V20.5833C41.7667 20.298 41.5353 20.0667 41.25 20.0667H22.65C22.3647 20.0667 22.1333 20.298 22.1333 20.5833V27.3H21.1V19.0333H42.8V43.8333ZM40.7333 24.2V31.4333H37.1167V24.2H40.7333ZM37.1167 23.1667V21.1H40.7333V23.1667H37.1167Z" fill="white"/>
<path d="M31.95 29.8833H20.5833C20.298 29.8833 20.0667 30.1147 20.0667 30.4V33.5C20.0667 33.7853 20.298 34.0167 20.5833 34.0167H31.95C32.2353 34.0167 32.4667 33.7853 32.4667 33.5V30.4C32.4667 30.1147 32.2353 29.8833 31.95 29.8833ZM31.4333 32.9833H21.1V30.9167H31.4333V32.9833Z" fill="white"/>
<path d="M32.4668 39.1833H29.3668C29.0814 39.1833 28.8501 39.4147 28.8501 39.7V45.9C28.8501 46.1853 29.0814 46.4167 29.3668 46.4167H32.4668C32.7521 46.4167 32.9834 46.1853 32.9834 45.9V39.7C32.9834 39.4147 32.7521 39.1833 32.4668 39.1833ZM31.9501 45.3833H29.8834V40.2167H31.9501V45.3833Z" fill="white"/>
<path d="M32.4668 35.05H29.3668C29.0814 35.05 28.8501 35.2813 28.8501 35.5667V37.6333C28.8501 37.9187 29.0814 38.15 29.3668 38.15H32.4668C32.7521 38.15 32.9834 37.9187 32.9834 37.6333V35.5667C32.9834 35.2813 32.7521 35.05 32.4668 35.05ZM31.9501 37.1167H29.8834V36.0833H31.9501V37.1167Z" fill="white"/>
<path d="M27.8166 39.1833H24.7166C24.4313 39.1833 24.2 39.4147 24.2 39.7V41.7667C24.2 42.052 24.4313 42.2833 24.7166 42.2833H27.8166C28.1019 42.2833 28.3333 42.052 28.3333 41.7667V39.7C28.3333 39.4147 28.1019 39.1833 27.8166 39.1833ZM27.3 41.25H25.2333V40.2167H27.3V41.25Z" fill="white"/>
<path d="M27.8166 35.05H24.7166C24.4313 35.05 24.2 35.2813 24.2 35.5667V37.6333C24.2 37.9187 24.4313 38.15 24.7166 38.15H27.8166C28.1019 38.15 28.3333 37.9187 28.3333 37.6333V35.5667C28.3333 35.2813 28.1019 35.05 27.8166 35.05ZM27.3 37.1167H25.2333V36.0833H27.3V37.1167Z" fill="white"/>
<path d="M23.1667 39.1833H20.0667C19.7814 39.1833 19.55 39.4147 19.55 39.7V41.7667C19.55 42.052 19.7814 42.2833 20.0667 42.2833H23.1667C23.452 42.2833 23.6834 42.052 23.6834 41.7667V39.7C23.6834 39.4147 23.452 39.1833 23.1667 39.1833ZM22.65 41.25H20.5834V40.2167H22.65V41.25Z" fill="white"/>
<path d="M23.1667 35.05H20.0667C19.7814 35.05 19.55 35.2813 19.55 35.5667V37.6333C19.55 37.9187 19.7814 38.15 20.0667 38.15H23.1667C23.452 38.15 23.6834 37.9187 23.6834 37.6333V35.5667C23.6834 35.2813 23.452 35.05 23.1667 35.05ZM22.65 37.1167H20.5834V36.0833H22.65V37.1167Z" fill="white"/>
<path d="M27.8166 43.3167H24.7166C24.4313 43.3167 24.2 43.548 24.2 43.8333V45.9C24.2 46.1853 24.4313 46.4167 24.7166 46.4167H27.8166C28.1019 46.4167 28.3333 46.1853 28.3333 45.9V43.8333C28.3333 43.548 28.1019 43.3167 27.8166 43.3167ZM27.3 45.3833H25.2333V44.35H27.3V45.3833Z" fill="white"/>
<path d="M23.1667 43.3167H20.0667C19.7814 43.3167 19.55 43.548 19.55 43.8333V45.9C19.55 46.1853 19.7814 46.4167 20.0667 46.4167H23.1667C23.452 46.4167 23.6834 46.1853 23.6834 45.9V43.8333C23.6834 43.548 23.452 43.3167 23.1667 43.3167ZM22.65 45.3833H20.5834V44.35H22.65V45.3833Z" fill="white"/>
</g>
<defs>
<clipPath id="clip0">
<rect width="31" height="31" fill="white" transform="translate(18 18)"/>
</clipPath>
</defs>
</svg>
