<svg width="56" height="55" viewBox="0 0 56 55" fill="none" xmlns="http://www.w3.org/2000/svg">
<circle cx="27.8955" cy="27.5" r="27.5" fill="#F7F9FE" fill-opacity="0.56"/>
<path d="M46.0022 21.6365L36.3404 11.9878C35.6963 11.3446 34.8452 11 33.925 11C33.0048 11 32.1537 11.3446 31.5096 11.9878L31.3485 12.1257C30.0143 13.4581 30.0143 15.6176 31.3485 16.95L31.6016 17.2027L27.3228 18.1216C27.2998 18.1216 27.2768 18.1216 27.2308 18.1446H27.2078C27.0928 18.1676 26.9547 18.2135 26.8397 18.2595L26.6097 18.0297C26.4487 17.8689 26.2876 17.7311 26.1036 17.6162L25.6435 17.3176L25.6205 17.3405C25.7125 16.3527 25.3675 15.3419 24.6313 14.6297L24.4933 14.4919C23.8492 13.8486 22.998 13.5041 22.0779 13.5041C21.1577 13.5041 20.3065 13.8486 19.6624 14.4919L10.0007 24.1405C8.66644 25.473 8.66644 27.6324 10.0007 28.9649L10.1847 29.1257C10.8288 29.7689 11.726 30.1135 12.6001 30.1135C12.6922 30.1135 12.8072 30.1135 12.8992 30.0905L12.8532 30.1365L13.1522 30.5959C13.2673 30.7797 13.4053 30.9405 13.5663 31.1014L26.5637 44.0811C27.1618 44.6784 27.9669 45 28.7491 45C29.4392 45 30.1063 44.7703 30.6814 44.3338L30.7504 44.2878L30.7964 44.2189C31.2565 43.6216 31.4406 42.8405 31.3255 42.1054C32.1767 42.2432 33.0738 41.9905 33.695 41.3473C34.201 40.8419 34.4771 40.1527 34.4771 39.4405C34.4771 39.2797 34.4541 39.1419 34.4311 38.9811C34.5921 39.0041 34.7301 39.027 34.8912 39.027C35.6043 39.027 36.2944 38.7514 36.8005 38.2459C37.4216 37.6257 37.6977 36.7297 37.5597 35.8797C38.3188 36.0176 39.1239 35.8108 39.722 35.3054L39.8141 35.2135C40.8262 34.0419 40.7802 32.273 39.745 31.1243L38.7559 30.1365L41.7694 27.127C42.2755 27.4027 42.8506 27.5635 43.4257 27.5635C44.3459 27.5635 45.197 27.2189 45.8411 26.5757L45.9792 26.4378C47.3364 25.1284 47.3364 22.9689 46.0022 21.6365ZM11.1509 28.1378L11.0129 28C10.2307 27.2189 10.2307 25.9095 11.0129 25.1284L20.6746 15.4797C21.0657 15.0892 21.5718 14.8824 22.1009 14.8824C22.653 14.8824 23.1591 15.0892 23.5501 15.4797L23.6882 15.6176C24.3093 16.2378 24.4473 17.1797 24.0792 17.9608L13.4973 28.5284C12.7152 28.9189 11.772 28.7581 11.1509 28.1378ZM38.8019 34.2946C38.5028 34.5243 38.1118 34.5932 37.7667 34.5243C36.9846 34.2257 36.5935 33.6743 36.5935 33.6743L35.0292 32.1122L33.5569 33.5824L35.6043 35.627C35.7883 35.8108 35.9724 35.9486 36.1794 36.0865C36.2714 36.523 36.1334 36.9595 35.8113 37.2811C35.4893 37.5797 35.0522 37.7176 34.6151 37.6486C34.4771 37.4419 34.3391 37.2581 34.155 37.0743L32.1767 35.0986L31.9696 35.3054L30.4744 36.7297L32.4987 38.7514C32.6828 38.9351 32.8668 39.073 33.0738 39.2108C33.0968 39.3027 33.0968 39.3716 33.0968 39.4635C33.0968 39.8081 32.9588 40.1527 32.7058 40.4054C32.3837 40.727 31.9466 40.8419 31.5096 40.773C31.3715 40.5662 31.2335 40.3824 31.0495 40.1986L29.0711 38.223L28.8641 38.4297L27.3688 39.8541L29.3932 41.8757C29.5772 42.0595 29.7612 42.1973 29.9683 42.3351C30.0373 42.6797 29.9683 43.0473 29.7612 43.3459C29.0711 43.8284 28.128 43.7595 27.5298 43.1622L14.6475 30.2973L14.7395 30.2054C15.0156 30.0446 15.2456 29.8378 15.4757 29.6311L22.883 22.2338L22.4689 22.9C21.5258 24.4162 21.7788 26.3919 23.067 27.6324L24.7463 29.2405C25.4595 29.9297 26.4026 30.2973 27.3688 30.2973C28.243 30.2973 29.0711 29.9986 29.7612 29.4473C30.4514 28.8959 30.5664 27.8622 30.0143 27.15L29.6692 26.7135C29.0941 25.9784 29.1861 24.9676 29.8763 24.3703L30.5434 23.8649L38.7099 32.0662L38.7329 32.0892C39.285 32.7095 39.331 33.6514 38.8019 34.2946ZM38.2728 28.6892L30.7044 21.1541L28.565 22.7622L28.542 22.7851C26.9777 24.1176 26.7477 26.4149 28.0129 28.023L28.0589 28.0919C27.4378 28.3905 26.6557 28.2757 26.1496 27.7703L24.4703 26.1622C23.8952 25.6108 23.7802 24.6919 24.1942 24.0027L26.5177 20.2351C26.6557 20.0284 26.8397 19.8446 27.0698 19.6838L27.1388 19.6378C27.2768 19.5689 27.4148 19.5 27.5528 19.4541C27.5759 19.4541 27.5989 19.4541 27.6219 19.4311L31.9696 18.4892L40.2051 26.7135L38.2728 28.6892ZM45.036 25.473L44.898 25.6108C44.5069 26.0014 44.0008 26.2081 43.4717 26.2081C42.9196 26.2081 42.4135 26.0014 42.0455 25.6108L32.3837 15.9622C31.6016 15.1811 31.6016 13.8946 32.3837 13.0905L32.5217 12.9527C32.9128 12.5622 33.4189 12.3554 33.948 12.3554C34.5001 12.3554 35.0062 12.5622 35.3743 12.9527L45.036 22.6014C45.8181 23.4054 45.8181 24.6919 45.036 25.473Z" fill="#0036C2"/>
</svg>
