<svg width="297" height="190" viewBox="0 0 297 190" fill="none" xmlns="http://www.w3.org/2000/svg">
<g clip-path="url(#clip0)">
<rect width="297" height="190" rx="4" fill="#0C4BEF"/>
<path d="M256.047 168.733H248.329C245.522 168.733 243.249 166.459 243.249 163.653C243.249 160.846 245.522 158.573 248.329 158.573H261.913C263.765 158.573 265.281 157.057 265.281 155.205C265.281 153.352 263.765 151.837 261.913 151.837H255.542V147.15C255.542 145.297 254.026 143.782 252.174 143.782C250.321 143.782 248.806 145.297 248.806 147.15V151.837H248.329C241.817 151.837 236.513 157.141 236.513 163.653C236.513 170.164 241.817 175.469 248.329 175.469H256.047C258.854 175.469 261.127 177.742 261.127 180.549C261.127 183.356 258.854 185.629 256.047 185.629H242.21C240.358 185.629 238.842 187.145 238.842 188.997C238.842 190.849 240.358 192.365 242.21 192.365H248.834V197.164C248.834 199.017 250.349 200.532 252.202 200.532C254.054 200.532 255.57 199.017 255.57 197.164V192.365H256.131C256.159 192.365 256.187 192.365 256.215 192.365C262.671 192.281 267.863 187.004 267.863 180.549C267.863 174.037 262.558 168.733 256.047 168.733Z" fill="white" fill-opacity="0.07"/>
<path d="M302.806 161.099C299.269 152.959 294.386 145.073 288.211 137.691C280.745 128.71 273.308 122.704 269.519 119.925L283.833 93.3742C284.534 92.0551 284.31 90.4272 283.215 89.3888C279.511 85.7682 275.581 84 271.203 84C267.189 84 263.513 85.5156 260.313 86.8628C257.787 87.9012 255.401 88.9116 253.465 88.9116C252.875 88.9116 252.37 88.8274 251.865 88.631C245.185 86.1892 240.049 84.6736 235.081 84.6736C228.794 84.6736 223.434 87.1996 218.185 92.5884C217.091 93.711 216.922 95.4792 217.792 96.7983L233.229 120.122C229.412 122.956 222.114 128.906 214.789 137.691C208.643 145.073 203.731 152.959 200.194 161.099C195.76 171.343 193.515 182.036 193.515 192.87C193.515 207.268 205.246 219 219.645 219H283.356C297.754 219 309.486 207.268 309.486 192.87C309.486 182.036 307.24 171.343 302.806 161.099ZM224.977 95.395C228.233 92.5884 231.348 91.3534 235.081 91.3534C239.067 91.3534 243.557 92.7006 249.535 94.9179C250.77 95.3669 252.09 95.5915 253.437 95.5915C256.72 95.5915 259.864 94.3004 262.867 93.0374C265.758 91.8306 268.508 90.6798 271.175 90.6798C272.466 90.6798 274.29 90.9044 276.592 92.5322L263.12 117.568H239.656L224.977 95.395ZM283.356 212.264H219.645C208.951 212.264 200.251 203.563 200.251 192.87C200.251 174.879 206.846 157.815 219.813 142.154C228.008 132.246 236.344 126.1 238.87 124.304H264.074C266.628 126.072 274.936 132.246 283.131 142.154C296.126 157.815 302.693 174.851 302.693 192.87C302.75 203.563 294.049 212.264 283.356 212.264Z" fill="white" fill-opacity="0.07"/>
</g>
<defs>
<clipPath id="clip0">
<rect width="297" height="190" fill="white"/>
</clipPath>
</defs>
</svg>
