<svg width="100" height="53" viewBox="0 0 100 53" fill="none" xmlns="http://www.w3.org/2000/svg">
<g clip-path="url(#clip0)">
<path d="M74.5688 48.1703H26.4086C25.078 48.1703 24 49.2484 24 50.5801C24 51.9096 25.078 52.9876 26.4086 52.9876H74.5677C75.8983 52.9876 76.9763 51.9096 76.9763 50.5801C76.9752 49.2484 75.8972 48.1703 74.5688 48.1703Z" fill="#0C4BEF" fill-opacity="0.12"/>
<path d="M29.4184 41.9086C28.0878 41.9086 27.0098 42.9866 27.0098 44.3172C27.0098 45.6478 28.0878 46.727 29.4184 46.727H71.5582C72.8888 46.727 73.9668 45.6478 73.9668 44.3172C73.9668 42.9866 72.8888 41.9086 71.5582 41.9086H70.9571V20.2354H71.5582C72.2246 20.2354 72.7613 19.6964 72.7613 19.0322C72.7613 18.3681 72.2223 17.829 71.5582 17.829H29.4184C28.7531 17.829 28.2152 18.3681 28.2152 19.0322C28.2152 19.6964 28.7542 20.2354 29.4184 20.2354H30.0206V41.9074H29.4184V41.9086ZM66.1399 20.2354V41.9074H58.9162V20.2354H66.1399ZM54.099 20.2354V41.9074H46.8753V20.2354H54.099ZM34.8356 20.2354H42.0592V41.9074H34.8356V20.2354Z" fill="#0C4BEF" fill-opacity="0.12"/>
<path d="M26.4087 15.6649H74.5677C74.5756 15.6649 74.5847 15.6649 74.5914 15.6649C75.9232 15.6649 77 14.5869 77 13.2563C77 12.1986 76.319 11.3021 75.3729 10.9774L51.4783 0.225348C50.8502 -0.0565612 50.1319 -0.0565612 49.5027 0.225348L25.4209 11.0608C24.3846 11.5276 23.8151 12.653 24.0542 13.7626C24.2921 14.8722 25.2731 15.6649 26.4087 15.6649Z" fill="#0C4BEF" fill-opacity="0.12"/>
</g>
<path d="M14.61 28.2C15.83 28.46 16.81 29.07 17.55 30.03C18.29 30.97 18.66 32.05 18.66 33.27C18.66 35.03 18.04 36.43 16.8 37.47C15.58 38.49 13.87 39 11.67 39H1.86V17.94H11.34C13.48 17.94 15.15 18.43 16.35 19.41C17.57 20.39 18.18 21.72 18.18 23.4C18.18 24.64 17.85 25.67 17.19 26.49C16.55 27.31 15.69 27.88 14.61 28.2ZM6.99 26.49H10.35C11.19 26.49 11.83 26.3 12.27 25.92C12.73 25.54 12.96 24.99 12.96 24.27C12.96 23.53 12.73 22.97 12.27 22.59C11.83 22.19 11.19 21.99 10.35 21.99H6.99V26.49ZM10.77 34.92C11.63 34.92 12.29 34.72 12.75 34.32C13.23 33.92 13.47 33.34 13.47 32.58C13.47 31.84 13.22 31.26 12.72 30.84C12.24 30.4 11.57 30.18 10.71 30.18H6.99V34.92H10.77ZM20.6154 30.6C20.6154 28.88 20.9354 27.37 21.5754 26.07C22.2354 24.77 23.1254 23.77 24.2454 23.07C25.3654 22.37 26.6154 22.02 27.9954 22.02C29.1754 22.02 30.2054 22.26 31.0854 22.74C31.9854 23.22 32.6754 23.85 33.1554 24.63V22.26H38.2854V39H33.1554V36.63C32.6554 37.41 31.9554 38.04 31.0554 38.52C30.1754 39 29.1454 39.24 27.9654 39.24C26.6054 39.24 25.3654 38.89 24.2454 38.19C23.1254 37.47 22.2354 36.46 21.5754 35.16C20.9354 33.84 20.6154 32.32 20.6154 30.6ZM33.1554 30.63C33.1554 29.35 32.7954 28.34 32.0754 27.6C31.3754 26.86 30.5154 26.49 29.4954 26.49C28.4754 26.49 27.6054 26.86 26.8854 27.6C26.1854 28.32 25.8354 29.32 25.8354 30.6C25.8354 31.88 26.1854 32.9 26.8854 33.66C27.6054 34.4 28.4754 34.77 29.4954 34.77C30.5154 34.77 31.3754 34.4 32.0754 33.66C32.7954 32.92 33.1554 31.91 33.1554 30.63ZM52.1967 22.08C54.1567 22.08 55.7167 22.72 56.8767 24C58.0567 25.26 58.6467 27 58.6467 29.22V39H53.5467V29.91C53.5467 28.79 53.2567 27.92 52.6767 27.3C52.0967 26.68 51.3167 26.37 50.3367 26.37C49.3567 26.37 48.5767 26.68 47.9967 27.3C47.4167 27.92 47.1267 28.79 47.1267 29.91V39H41.9967V22.26H47.1267V24.48C47.6467 23.74 48.3467 23.16 49.2267 22.74C50.1067 22.3 51.0967 22.08 52.1967 22.08ZM72.4416 39L67.3416 31.98V39H62.2116V16.8H67.3416V29.07L72.4116 22.26H78.7416L71.7816 30.66L78.8016 39H72.4416ZM79.7365 30.6C79.7365 28.88 80.0565 27.37 80.6965 26.07C81.3565 24.77 82.2465 23.77 83.3665 23.07C84.4865 22.37 85.7365 22.02 87.1165 22.02C88.2965 22.02 89.3265 22.26 90.2065 22.74C91.1065 23.22 91.7965 23.85 92.2765 24.63V22.26H97.4065V39H92.2765V36.63C91.7765 37.41 91.0765 38.04 90.1765 38.52C89.2965 39 88.2665 39.24 87.0865 39.24C85.7265 39.24 84.4865 38.89 83.3665 38.19C82.2465 37.47 81.3565 36.46 80.6965 35.16C80.0565 33.84 79.7365 32.32 79.7365 30.6ZM92.2765 30.63C92.2765 29.35 91.9165 28.34 91.1965 27.6C90.4965 26.86 89.6365 26.49 88.6165 26.49C87.5965 26.49 86.7265 26.86 86.0065 27.6C85.3065 28.32 84.9565 29.32 84.9565 30.6C84.9565 31.88 85.3065 32.9 86.0065 33.66C86.7265 34.4 87.5965 34.77 88.6165 34.77C89.6365 34.77 90.4965 34.4 91.1965 33.66C91.9165 32.92 92.2765 31.91 92.2765 30.63Z" fill="#0C4BEF"/>
<defs>
<clipPath id="clip0">
<rect width="53" height="53" fill="white" transform="translate(24)"/>
</clipPath>
</defs>
</svg>
