<svg width="56" height="55" viewBox="0 0 56 55" fill="none" xmlns="http://www.w3.org/2000/svg">
<circle cx="27.8955" cy="27.5" r="27.5" fill="#F7F9FE" fill-opacity="0.56"/>
<path d="M43 17.0324V16.1361C43 14.7587 40.816 13.753 40.5485 13.6437L28.7146 7.3034C27.9569 6.90987 26.9986 6.88801 26.2408 7.3034L14.4292 13.6437C14.0726 13.7967 12 14.7806 12 16.1361V17.0324C12 17.579 12.2674 18.0381 12.6686 18.3442C12.2674 18.6503 12 19.1094 12 19.656V21.4488C12 22.3452 12.7577 23.0885 13.6715 23.0885H16.1898V36.9278H13.6715C12.7577 36.9278 12 37.6711 12 38.5675V40.3603C12 41.2567 12.7577 42 13.6715 42H41.3285C42.2423 42 43 41.2567 43 40.3603V38.5675C43 37.6711 42.2423 36.9278 41.3285 36.9278H38.8102V23.0666H41.3285C42.2423 23.0666 43 22.3233 43 21.4269V19.656C43 19.1094 42.7326 18.6503 42.3314 18.3442C42.7326 18.0381 43 17.5572 43 17.0324ZM13.3372 16.1361C13.3372 15.8956 14.1395 15.2178 14.9863 14.8243L26.9094 8.44028C27.0877 8.33097 27.2883 8.28724 27.5111 8.28724C27.7117 8.28724 27.9123 8.33097 28.1129 8.44028L39.9468 14.8024L40.0137 14.8243C40.8605 15.196 41.6628 15.8737 41.6628 16.1361V17.0324C41.6628 17.2073 41.5068 17.3604 41.3285 17.3604H13.6715C13.4932 17.3604 13.3372 17.2073 13.3372 17.0324V16.1361ZM19.1316 23.7225V36.25H17.527V23.7225H19.1316ZM20.4687 23.0666H22.2962V36.9059H20.4687V23.0666ZM31.3666 36.25H29.762V23.7225H31.3666V36.25ZM28.4249 36.9059H26.5974V23.0666H28.4249V36.9059ZM23.6334 23.7225H25.238V36.25H23.6334V23.7225ZM41.6628 38.5456V40.3384C41.6628 40.5133 41.5068 40.6664 41.3285 40.6664H13.6715C13.4932 40.6664 13.3372 40.5133 13.3372 40.3384V38.5456C13.3372 38.3707 13.4932 38.2177 13.6715 38.2177H41.3285C41.5291 38.2177 41.6628 38.3707 41.6628 38.5456ZM35.8684 36.25V23.7225H37.473V36.25H35.8684ZM34.5313 36.9059H32.7038V23.0666H34.5313V36.9059ZM41.6628 21.4269C41.6628 21.6018 41.5068 21.7549 41.3285 21.7549H13.6715C13.4932 21.7549 13.3372 21.6237 13.3372 21.4269V19.656C13.3372 19.4811 13.4932 19.3281 13.6715 19.3281H41.3285C41.5068 19.3281 41.6628 19.4811 41.6628 19.656V21.4269Z" fill="#0036C2"/>
</svg>
