<svg width="1152" height="729" viewBox="0 0 1152 729" fill="none" xmlns="http://www.w3.org/2000/svg">
<path d="M593.046 431.343C896.589 227.706 1151.5 0.500061 1151.5 0.500061C1096.66 93.4887 997.584 679.776 1040.12 726.284C1042.76 727.224 1045.39 728.13 1048 729C1044.97 729.676 1042.35 728.721 1040.12 726.284C914.238 681.502 753.679 558.59 593.046 431.343C430.558 540.351 254.133 642.605 95.4147 699.638C70.6407 713.307 38.9239 723.384 -1 729C30.1833 721.398 62.4163 711.495 95.4147 699.638C305.232 583.872 17.0556 210.46 -0.999922 107L-0.999904 75.5001C126.67 52.8923 359.937 246.682 593.046 431.343Z" fill="#F8F8F8" fill-opacity="0.67"/>
</svg>
