<svg width="1152" height="148" viewBox="0 0 1152 148" fill="none" xmlns="http://www.w3.org/2000/svg">
<g clip-path="url(#clip0)">
<rect width="1152" height="148" fill="#0C4BEF"/>
<path d="M891.103 80.801C890.982 81.2574 890.914 81.72 890.892 82.1825V91.6841C890.91 95.5999 894.402 99.1004 899.669 100.476V114.456C899.693 119.137 904.977 122.984 911.689 123.205V203.973C904.977 204.196 899.693 208.043 899.669 212.722V226.662C894.391 228.074 890.901 231.6 890.892 235.536V244.83C890.892 246.563 892.913 247.969 895.401 247.969H1199.4C1201.89 247.969 1203.9 246.563 1203.9 244.83V235.536C1203.9 231.599 1200.41 228.072 1195.13 226.662V212.64C1195.11 207.959 1189.82 204.112 1183.11 203.891V123.205C1189.82 122.984 1195.11 119.137 1195.13 114.456V100.476C1200.39 99.1004 1203.89 95.5999 1203.9 91.6841V82.2451C1203.88 81.7826 1203.81 81.32 1203.69 80.8636C1205.96 81.5627 1208.61 80.8513 1209.61 79.2728C1210.62 77.6959 1209.6 75.8502 1207.33 75.1495L1049.47 17.363C1048.16 16.879 1046.58 16.879 1045.26 17.363L887.407 75.0869C885.205 75.8975 884.361 77.7951 885.52 79.3293C886.581 80.7307 888.975 81.3628 891.103 80.801ZM908.684 105.917V101.082H960.671V105.875L908.684 105.917ZM1024.44 123.227V203.973C1017.73 204.196 1012.44 208.043 1012.42 212.722V226.076H969.625V212.722C969.601 208.043 964.316 204.196 957.605 203.973V123.205C964.316 122.984 969.601 119.137 969.625 114.456V101.082H1012.36V114.437C1012.37 119.125 1017.66 122.981 1024.38 123.205L1024.44 123.227ZM1021.43 105.917V101.082H1073.42V105.875L1021.43 105.917ZM1137.19 123.227V203.973C1130.48 204.196 1125.19 208.043 1125.17 212.722V226.076H1082.38V212.722C1082.35 208.043 1077.07 204.196 1070.36 203.973V123.205C1077.07 122.984 1082.35 119.137 1082.38 114.456V101.082H1125.11V114.437C1125.12 119.125 1130.41 122.981 1137.13 123.205L1137.19 123.227ZM1134.19 105.917V101.082H1186.17V105.875L1134.19 105.917ZM1186.17 221.284V226.076H1134.13V221.284H1186.17ZM1073.42 221.284V226.076H1021.38V221.284H1073.42ZM1028.89 116.989H1024.98C1022.99 116.989 1021.38 115.866 1021.38 114.478V112.196H1073.36V114.478C1073.36 115.866 1071.75 116.989 1069.76 116.989H1028.89ZM1061.37 123.268V203.932H1033.4V123.268H1061.37ZM1028.89 210.211H1069.76C1071.75 210.211 1073.36 211.335 1073.36 212.722V215.005H1021.38V212.722C1021.38 211.335 1022.99 210.211 1024.98 210.211H1028.89ZM960.612 221.284V226.076H908.623V221.284H960.612ZM908.623 114.54V112.196H960.612V114.478C960.612 115.866 958.999 116.989 957.004 116.989H912.138C910.17 116.956 908.605 115.827 908.623 114.456V114.54ZM948.592 123.331V203.932H920.643V123.268L948.592 123.331ZM908.623 212.787C908.623 211.397 910.236 210.274 912.228 210.274H957.004C958.999 210.274 960.612 211.397 960.612 212.787V215.067H908.623V212.787ZM1194.89 235.663V241.815H899.848V235.663C899.848 233.87 901.933 232.417 904.506 232.417H1190.23C1192.77 232.417 1194.84 233.832 1194.89 235.599V235.663ZM1186.11 212.787V215.067H1134.13V212.787C1134.13 211.397 1135.74 210.274 1137.73 210.274H1182.6C1184.52 210.307 1186.07 211.384 1186.11 212.722V212.787ZM1146.15 203.995V123.268H1174.12V203.932L1146.15 203.995ZM1186.11 114.54C1186.11 115.928 1184.5 117.052 1182.51 117.052H1137.76C1135.77 117.052 1134.16 115.928 1134.16 114.54V112.196H1186.14L1186.11 114.54ZM1047.37 23.6419L1181.61 72.7848H913.131L1047.37 23.6419ZM899.848 82.2451C899.848 80.5124 901.867 79.1064 904.355 79.1064H1190.38C1192.87 79.1064 1194.89 80.5124 1194.89 82.2451V91.7482C1194.89 93.4809 1192.87 94.8869 1190.38 94.8869H904.355C901.867 94.8869 899.848 93.4809 899.848 91.7482V82.2451Z" fill="white" fill-opacity="0.05"/>
<path d="M1036.4 44.8613H1038.78V34.7314H1045.23L1048.51 44.8613H1052.16V34.7314H1056.7V44.8613H1059.04V47.8843H1056.7V50.8472H1059.04V53.8701H1056.7V64H1050.23L1046.95 53.8701H1043.35V64H1038.78V53.8701H1036.4V50.8472H1038.78V47.8843H1036.4V44.8613ZM1043.35 50.8472H1045.97L1045.03 47.8843H1043.35V50.8472ZM1050.47 50.8472H1052.16V47.8843H1049.49L1050.47 50.8472ZM1042.97 41.458L1043.21 44.8613H1044.03L1042.97 41.458ZM1052.52 57.1133C1052.48 56.7663 1052.4 55.6852 1052.28 53.8701H1051.46L1052.52 57.1133Z" fill="white" fill-opacity="0.05"/>
</g>
<defs>
<clipPath id="clip0">
<rect width="1152" height="148" fill="white"/>
</clipPath>
</defs>
</svg>
