<svg width="58" height="55" viewBox="0 0 58 55" fill="none" xmlns="http://www.w3.org/2000/svg">
<ellipse cx="28.5377" cy="27.5" rx="28.5377" ry="27.5" fill="#F7F9FE" fill-opacity="0.56"/>
<path d="M41.5797 38.1017C41.5797 37.9757 41.5797 37.8706 41.5585 37.7446L41.5374 36.8414C41.643 36.5473 41.7274 36.2742 41.8119 35.9801C41.8752 35.749 41.9386 35.497 42.0019 35.2029C42.2131 34.2786 42.3186 33.3543 42.3186 32.4301C43.8177 32.22 44.9789 30.9176 44.9789 29.3842C44.9789 28.1238 44.1977 27.0105 43.0365 26.5274C44.2822 24.5948 44.9367 22.3682 44.9367 20.0575C44.9789 13.4196 39.5317 8 32.8599 8C30.3896 8 28.0038 8.73521 25.9559 10.1426L25.8714 10.2056L25.8081 10.2897C25.1113 11.1509 24.5624 12.0962 24.1401 13.1255C23.2534 12.8104 22.3244 12.6423 21.3743 12.6423C16.9405 12.6423 13.3512 16.2344 13.3512 20.6247C13.3512 22.2001 13.8157 23.7336 14.7025 25.0359L14.7236 25.0779C14.7447 25.099 14.7658 25.141 14.7869 25.162L14.8292 25.225L14.8925 25.267L14.8714 25.351C14.8292 25.5401 14.8081 25.7501 14.7869 25.9392C13.2246 26.0862 12.0211 27.4306 12.0211 28.9851C12.0211 30.5185 13.1823 31.8209 14.6814 32.031V32.22C14.6814 33.3753 14.8292 34.5097 15.1036 35.623C15.167 35.8961 15.2514 36.1692 15.3359 36.4212C15.3781 36.5473 15.4203 36.6943 15.4626 36.8203L15.4415 37.7656C15.4415 37.9757 15.4415 38.1857 15.4203 38.3958C15.2726 40.9165 14.5336 42.597 13.309 43.2902L12 44.0254L13.4357 44.4456C14.4491 44.7606 15.5048 44.9077 16.5816 44.9077C18.1228 44.9077 19.6219 44.5926 21.0365 43.9624L21.1843 43.8994C21.2265 43.9204 21.2687 43.9414 21.3109 43.9834C23.4856 45.3068 25.9559 46 28.5106 46C31.1708 46 33.7466 45.2438 35.9635 43.8154C36.0058 43.7944 36.048 43.7524 36.0902 43.7313L36.238 43.7944C37.5681 44.3405 38.9616 44.6136 40.4184 44.6136C41.4952 44.6136 42.5509 44.4666 43.5643 44.1515L45 43.7313L43.691 42.9961C42.4664 42.3029 41.7274 40.6224 41.5797 38.1017ZM43.7332 29.3842C43.7332 30.0774 43.3321 30.6866 42.762 30.9807V27.7877C43.3532 28.0818 43.7332 28.691 43.7332 29.3842ZM14.618 20.6036C14.618 16.8856 17.6583 13.8817 21.3743 13.8817C22.3033 13.8817 23.19 14.0708 24.0345 14.4279L24.858 14.785L25.1747 13.9657C25.5547 12.9574 26.0825 12.0122 26.7582 11.1509C28.5739 9.91155 30.6641 9.26036 32.8599 9.26036C38.8349 9.26036 43.7121 14.1128 43.7121 20.0575C43.7121 22.2631 43.0576 24.3847 41.7908 26.1913L41.7486 26.2753C41.7063 26.3383 41.6641 26.4013 41.6219 26.4643L41.6008 26.4854C41.5585 26.5484 41.4952 26.6114 41.453 26.6954L41.3896 26.7374C39.8695 27.7457 38.0537 27.7457 36.1113 27.7247C35.858 27.7247 35.6046 27.7247 35.3724 27.7247C31.1075 27.7247 28.025 26.3383 26.2514 23.6285L25.618 22.7043L24.8791 23.5025C23.5912 24.9099 21.7754 25.7291 19.8541 25.7291C18.4395 25.7291 17.0883 25.288 15.9271 24.4898C15.8637 24.4478 15.8004 24.4058 15.737 24.3637L15.7159 24.3427C15.0192 23.2084 14.618 21.927 14.618 20.6036ZM14.2591 30.6025C13.6679 30.2875 13.2879 29.6783 13.2879 28.9851C13.2879 28.2919 13.6891 27.6827 14.2591 27.3886V30.6025ZM16.6238 43.6473C16.096 43.6473 15.5681 43.6053 15.0403 43.5213C15.8004 42.681 16.3071 41.4627 16.5605 39.9082C17.3628 41.1476 18.3762 42.2609 19.5163 43.2062C18.5873 43.5003 17.6161 43.6473 16.6238 43.6473ZM21.9866 42.8911C21.8599 42.8071 21.7332 42.7231 21.5854 42.639C19.3263 41.1476 17.5739 38.942 16.666 36.4002C16.6238 36.2742 16.5816 36.1481 16.5393 36.0221C16.4549 35.791 16.3916 35.539 16.3282 35.2869C16.0749 34.2786 15.9482 33.2493 15.9482 32.199V27.5777C15.9482 27.1996 15.9693 26.8214 15.9904 26.4433C17.1727 27.0525 18.5029 27.3676 19.8541 27.3676C21.881 27.3676 23.8445 26.6324 25.3858 25.309C27.1382 27.5147 29.714 28.817 33.0499 29.2161C31.9098 29.5102 31.0653 30.5605 31.0653 31.7999V32.4301H32.6488V31.7999C32.6488 31.1907 33.1344 30.7076 33.7466 30.7076C34.3589 30.7076 34.8445 31.1907 34.8445 31.7999V32.4301H36.428V31.7999C36.428 30.7076 35.7524 29.7623 34.8023 29.3422C35.2668 29.3632 35.7313 29.3422 36.1958 29.3632C37.8426 29.3842 39.5106 29.4052 41.0729 28.754V32.22V32.4511C41.0518 33.2703 40.9463 34.0896 40.7774 34.9088C40.714 35.1819 40.6507 35.4129 40.6084 35.623C40.524 35.8961 40.4395 36.1692 40.3551 36.4422C39.4683 38.8999 37.8637 40.9795 35.6891 42.471C35.5624 42.555 35.4357 42.639 35.309 42.7231C33.2822 44.0254 30.9386 44.6976 28.5317 44.6976C26.2092 44.7186 23.9501 44.0885 21.9866 42.8911ZM37.7793 42.9751C38.8349 42.0719 39.7639 41.0216 40.524 39.8452C40.7985 41.2736 41.2841 42.408 42.0019 43.2062C40.5873 43.4583 39.1305 43.3742 37.7793 42.9751Z" fill="#0036C2"/>
<path d="M23.3802 32.6821H24.9637V32.052C24.9637 30.5815 23.7603 29.3842 22.2823 29.3842C20.8044 29.3842 19.6221 30.5815 19.6221 32.052V32.6821H21.2056V32.052C21.2056 31.4428 21.6912 30.9596 22.3035 30.9596C22.9157 30.9596 23.4013 31.4428 23.4013 32.052V32.6821H23.3802Z" fill="#0036C2"/>
<path d="M31.7622 36.6313C31.7622 38.5009 30.242 40.0133 28.363 40.0133C26.4839 40.0133 24.9637 38.5009 24.9637 36.6313V36.0011H23.2747V36.6313C23.2747 39.4251 25.5549 41.6938 28.363 41.6938C31.171 41.6938 33.4512 39.4251 33.4512 36.6313V36.0011H31.7622V36.6313Z" fill="#0036C2"/>
</svg>
