<svg width="297" height="190" viewBox="0 0 297 190" fill="none" xmlns="http://www.w3.org/2000/svg">
<rect width="297" height="190" rx="4" fill="#0C4BEF"/>
<g clip-path="url(#clip0)">
<path d="M195.24 186.515L191.918 181.834C191.212 180.84 189.835 180.607 188.841 181.312C187.847 182.018 187.613 183.395 188.319 184.39L191.641 189.07C192.072 189.676 192.752 190 193.443 190C193.885 190 194.331 189.867 194.718 189.592C195.712 188.886 195.946 187.509 195.24 186.515Z" fill="white" fill-opacity="0.07"/>
<path d="M220.703 187.339L217.088 170.105C215.329 161.725 210.447 154.478 203.342 149.7L195.621 144.509C192.525 142.427 188.364 142.875 185.777 145.513V118.92C185.777 115.429 183.397 112.463 179.989 111.707C177.79 111.218 175.522 111.748 173.765 113.157C172.008 114.567 171 116.667 171 118.92V153.14C171 157.623 172.372 161.925 174.967 165.581L178.903 171.126C179.334 171.732 180.014 172.055 180.705 172.055C181.147 172.055 181.593 171.923 181.98 171.648C182.974 170.942 183.208 169.564 182.502 168.57L178.567 163.026C176.504 160.121 175.414 156.702 175.414 153.14V118.92C175.414 118.013 175.82 117.168 176.527 116.6C177.234 116.033 178.147 115.82 179.033 116.016C180.405 116.321 181.363 117.515 181.363 118.92V146.07C181.363 149.913 182.775 153.575 185.34 156.423C185.45 156.555 185.563 156.686 185.682 156.812C187.148 158.365 188.871 160.195 190.494 161.92L192.766 164.339C192.774 164.346 192.782 164.353 192.789 164.36C194.733 166.428 196.166 167.954 196.196 167.986C197.03 168.874 198.427 168.919 199.316 168.084C200.204 167.25 200.248 165.853 199.414 164.964C199.374 164.922 196.79 162.171 193.84 159.035L188.779 153.649C188.766 153.635 188.755 153.621 188.742 153.607C187.555 152.188 187.57 150.13 188.814 148.726C189.914 147.485 191.782 147.246 193.159 148.172L200.878 153.363C207.025 157.496 211.247 163.763 212.767 171.011L216.384 188.246C216.602 189.286 217.519 190 218.541 190C218.692 190 218.844 189.985 218.997 189.953C220.19 189.702 220.954 188.532 220.703 187.339Z" fill="white" fill-opacity="0.07"/>
<path d="M187.352 175.402L187.337 175.382C186.629 174.39 185.251 174.159 184.259 174.867C183.267 175.575 183.036 176.954 183.744 177.946L183.758 177.966C184.189 178.569 184.868 178.891 185.557 178.891C186 178.891 186.448 178.758 186.837 178.48C187.829 177.772 188.059 176.394 187.352 175.402Z" fill="white" fill-opacity="0.07"/>
<path d="M281.235 113.157C279.478 111.748 277.209 111.219 275.011 111.707C271.603 112.463 269.223 115.429 269.223 118.92V145.514C266.636 142.875 262.474 142.428 259.379 144.509L251.658 149.7C244.552 154.478 239.671 161.724 237.912 170.105L234.296 187.339C234.046 188.532 234.81 189.702 236.003 189.953C236.156 189.985 236.308 190 236.458 190C237.481 190 238.398 189.286 238.616 188.246L242.232 171.011C243.753 163.763 247.975 157.495 254.121 153.363L261.841 148.172C263.218 147.246 265.086 147.485 266.186 148.726C267.428 150.129 267.445 152.183 266.263 153.602C266.249 153.617 266.235 153.633 266.221 153.649C266.221 153.649 255.626 164.922 255.586 164.964C254.752 165.853 254.796 167.25 255.684 168.084C256.573 168.918 257.969 168.875 258.804 167.986C258.834 167.954 267.852 158.365 269.318 156.812C269.437 156.686 269.55 156.555 269.66 156.424C272.225 153.575 273.637 149.913 273.637 146.07V118.92C273.637 117.515 274.595 116.321 275.967 116.016C276.853 115.82 277.766 116.033 278.473 116.6C279.18 117.167 279.586 118.013 279.586 118.92V153.14C279.586 156.703 278.496 160.121 276.434 163.026L259.759 186.515C259.054 187.509 259.287 188.887 260.281 189.592C260.669 189.867 261.115 190 261.557 190C262.248 190 262.928 189.676 263.359 189.07L280.033 165.581C282.628 161.926 284 157.623 284 153.14V118.92C283.999 116.667 282.992 114.567 281.235 113.157Z" fill="white" fill-opacity="0.07"/>
<path d="M255.454 119.3L251.527 118.362V117.658C254.079 115.87 255.753 112.91 255.753 109.564V104.46C255.753 99.013 251.321 94.582 245.875 94.582C243.43 94.582 241.193 95.4763 239.466 96.9524C237.544 92.2448 232.918 88.9179 227.528 88.9179C222.131 88.9179 217.5 92.2534 215.582 96.97C213.853 95.4834 211.607 94.5816 209.153 94.5816C203.706 94.5816 199.275 99.0126 199.275 104.459V104.799V109.564C199.275 112.909 200.949 115.87 203.501 117.657V118.361L199.574 119.299C194.886 120.419 191.612 124.568 191.612 129.388V133.51C191.612 134.729 192.6 135.717 193.819 135.717H203.96C203.945 135.985 203.934 136.254 203.934 136.525V144.461C203.934 145.68 204.922 146.668 206.141 146.668H219.407C220.626 146.668 221.614 145.68 221.614 144.461C221.614 143.242 220.626 142.254 219.407 142.254H217.127V137.693C217.127 136.474 216.139 135.486 214.92 135.486C213.701 135.486 212.713 136.474 212.713 137.693V142.254H208.348V136.525C208.348 132.269 211.239 128.603 215.378 127.611L221.435 126.16L225.488 135.381C225.84 136.183 226.633 136.7 227.508 136.7H227.508C228.384 136.7 229.176 136.183 229.529 135.381L233.578 126.174L239.615 127.616C243.758 128.606 246.652 132.272 246.652 136.532V142.254H242.287V137.693C242.287 136.474 241.298 135.486 240.08 135.486C238.861 135.486 237.873 136.474 237.873 137.693V142.254H235.372C234.153 142.254 233.165 143.242 233.165 144.461C233.165 145.68 234.153 146.668 235.372 146.668H248.859C250.078 146.668 251.066 145.68 251.066 144.461V136.532C251.066 136.258 251.055 135.987 251.039 135.717H261.209C262.428 135.717 263.416 134.729 263.416 133.51V129.389C263.416 124.568 260.142 120.42 255.454 119.3ZM245.875 98.9956C248.766 98.9956 251.14 101.254 251.327 104.099H248.258C245.679 104.099 243.14 103.478 240.858 102.295C241.698 100.356 243.63 98.9956 245.875 98.9956ZM240.411 109.242C240.414 109.134 240.419 109.027 240.419 108.919V106.953C242.896 107.978 245.559 108.513 248.258 108.513H251.338V109.564C251.338 112.577 248.888 115.028 245.875 115.028C242.862 115.028 240.411 112.577 240.411 109.564V109.242ZM219.051 101.809C219.051 97.1349 222.853 93.332 227.528 93.332C231.744 93.332 235.251 96.4258 235.898 100.462L232.183 98.279C231.253 97.733 230.065 97.938 229.373 98.7645C227.557 100.931 224.895 102.174 222.067 102.174H219.051V101.809V101.809ZM209.153 98.9956C211.398 98.9956 213.33 100.356 214.17 102.295C211.888 103.478 209.349 104.099 206.77 104.099H203.701C203.888 101.254 206.262 98.9956 209.153 98.9956ZM203.69 108.513H206.77C209.472 108.513 212.138 107.977 214.617 106.95V109.564C214.617 112.576 212.166 115.027 209.153 115.027C206.14 115.027 203.69 112.577 203.69 109.564V108.513ZM214.35 123.319C210.008 124.359 206.595 127.386 204.971 131.303H196.026V129.388C196.026 126.619 197.906 124.236 200.6 123.593L206.221 122.25C207.214 122.013 207.915 121.125 207.915 120.103V119.361C208.321 119.412 208.734 119.442 209.153 119.442C209.57 119.442 209.98 119.413 210.383 119.362V119.992C210.381 120.025 210.38 120.058 210.38 120.091C210.38 120.815 210.736 121.524 211.389 121.947C211.636 122.107 211.902 122.21 212.174 122.262L215.466 123.051L214.35 123.319ZM220.506 119.892C219.939 119.642 219.348 119.442 218.739 119.296L214.796 118.352V117.664C215.508 117.167 216.151 116.579 216.709 115.916C217.695 117.435 218.99 118.733 220.506 119.722V119.892ZM230.092 123.135L227.509 129.009L224.92 123.12V121.545C225.763 121.719 226.635 121.81 227.528 121.81C228.406 121.81 229.263 121.722 230.092 121.554V123.135V123.135ZM227.528 117.396C222.853 117.396 219.051 113.594 219.051 108.919V106.588H222.067C225.567 106.588 228.895 105.287 231.445 102.965L235.997 105.639V109.242C235.826 113.767 232.094 117.396 227.528 117.396ZM234.506 119.899V119.75C236.034 118.762 237.341 117.46 238.334 115.935C238.888 116.59 239.526 117.171 240.231 117.664V118.352L236.288 119.296C235.674 119.444 235.078 119.646 234.506 119.899ZM259.002 131.303H250.026C248.4 127.386 244.986 124.361 240.641 123.323L239.533 123.058L242.843 122.265C243.118 122.214 243.389 122.109 243.638 121.947C244.291 121.525 244.646 120.816 244.646 120.091C244.646 120.074 244.645 120.057 244.645 120.04V119.362C245.048 119.413 245.458 119.442 245.874 119.442C246.294 119.442 246.707 119.412 247.113 119.361V120.103C247.113 121.125 247.814 122.013 248.807 122.25L254.428 123.593C257.121 124.236 259.002 126.619 259.002 129.388V131.303V131.303Z" fill="white" fill-opacity="0.07"/>
<path d="M229.06 142.9C228.647 142.489 228.08 142.255 227.5 142.255C226.917 142.255 226.35 142.489 225.939 142.9C225.527 143.312 225.293 143.879 225.293 144.462C225.293 145.043 225.527 145.61 225.939 146.022C226.35 146.433 226.917 146.669 227.5 146.669C228.08 146.669 228.647 146.433 229.06 146.022C229.47 145.61 229.707 145.043 229.707 144.462C229.707 143.879 229.471 143.312 229.06 142.9Z" fill="white" fill-opacity="0.07"/>
<path d="M227.498 77C226.28 77 225.291 77.9881 225.291 79.207V82.5094C225.291 83.7283 226.28 84.7164 227.498 84.7164C228.717 84.7164 229.705 83.7283 229.705 82.5094V79.207C229.705 77.9881 228.717 77 227.498 77Z" fill="white" fill-opacity="0.07"/>
<path d="M219.368 84.1991L217.053 81.8861C216.191 81.0245 214.794 81.0251 213.932 81.8874C213.07 82.7497 213.071 84.1472 213.934 85.0086L216.249 87.3216C216.68 87.7521 217.244 87.9673 217.809 87.9673C218.374 87.9673 218.939 87.7515 219.37 87.3202C220.231 86.4579 220.231 85.0605 219.368 84.1991Z" fill="white" fill-opacity="0.07"/>
<path d="M241.012 81.9426C240.149 81.0812 238.752 81.0817 237.89 81.9442L235.593 84.2437C234.732 85.106 234.732 86.5034 235.595 87.3648C236.026 87.7954 236.59 88.0106 237.155 88.0106C237.72 88.0106 238.285 87.7948 238.716 87.3633L241.013 85.0638C241.875 84.2015 241.874 82.804 241.012 81.9426Z" fill="white" fill-opacity="0.07"/>
</g>
<defs>
<clipPath id="clip0">
<rect width="113" height="113" fill="white" transform="translate(171 77)"/>
</clipPath>
</defs>
</svg>
