<svg width="67" height="67" viewBox="0 0 67 67" fill="none" xmlns="http://www.w3.org/2000/svg">
<circle cx="33.5" cy="33.5" r="33.5" fill="#0036C2"/>
<g clip-path="url(#clip0)">
<path d="M38.7906 40.3522V39.7079C38.9726 39.5609 39.1477 39.3998 39.3158 39.2317C40.6614 37.7501 41.5088 35.8839 41.7387 33.8957C42.9481 33.7114 44.0382 33.0633 44.7779 32.089C45.7933 30.6534 45.8843 28.5876 45.037 25.9966C44.9872 25.8472 44.8885 25.7188 44.7569 25.6324L44.3717 25.3733C44.4286 23.0355 43.6206 20.7589 42.1029 18.9798C40.2191 16.858 37.327 15.7866 33.4965 15.7726C29.673 15.7726 26.7739 16.858 24.8902 18.9518C23.3724 20.7309 22.5645 23.0075 22.6213 25.3453L22.2361 25.6044C22.1045 25.6908 22.0058 25.8191 21.956 25.9686C21.1087 28.5736 21.1997 30.6254 22.2151 32.0609C22.9521 33.0421 24.0421 33.6977 25.2543 33.8887C25.4852 35.8801 26.3352 37.7488 27.6842 39.2317C27.851 39.3995 28.0262 39.5584 28.2094 39.7079V40.3522C25.5274 40.8704 14.8202 43.3844 15.0023 50.5272C15.0023 50.9139 15.3158 51.2274 15.7026 51.2274H51.2974C51.6842 51.2274 51.9977 50.9139 51.9977 50.5272C52.1798 43.3844 41.4726 40.8704 38.7906 40.3522ZM24.8341 32.327C24.2391 32.1272 23.7204 31.7481 23.3495 31.2416L23.3846 31.2486C22.6843 30.2262 22.6213 28.6786 23.2445 26.6338L23.7557 26.2907C23.9708 26.1471 24.0892 25.8968 24.0638 25.6394C23.946 23.5465 24.6268 21.4867 25.9686 19.8762C27.5512 18.0835 30.0932 17.1871 33.4965 17.1731C36.8998 17.1591 39.4418 18.0835 41.0525 19.8762C42.3943 21.4867 43.075 23.5465 42.9572 25.6394C42.9318 25.8968 43.0502 26.1471 43.2653 26.2907L43.7765 26.6338C44.3998 28.6716 44.3577 30.2262 43.6365 31.2486C43.263 31.7555 42.7421 32.1346 42.1449 32.3341C42.9896 31.3729 43.4023 30.107 43.2863 28.8327C43.1551 28.066 42.7554 27.371 42.1589 26.8719C41.8578 19.8692 36.9489 19.0849 34.834 19.0849C34.3864 19.0836 33.9393 19.1164 33.4965 19.1829C33.0538 19.1163 32.6066 19.0836 32.159 19.0849C30.0582 19.0849 25.1563 19.8552 24.8341 26.8719C24.2337 27.367 23.8291 28.0596 23.6927 28.8257C23.5759 30.1001 23.9887 31.3664 24.8341 32.327ZM40.7653 26.5848C37.8269 26.7546 34.9069 26.0215 32.3971 24.484C32.113 24.2845 31.7257 24.3233 31.4867 24.575C30.0862 26.0806 27.5302 26.4307 26.2977 26.5078C26.6758 21.5568 29.673 20.4784 32.194 20.4784C32.5953 20.4755 32.996 20.5084 33.3915 20.5765C33.4839 20.5954 33.5791 20.5954 33.6716 20.5765C34.0671 20.5085 34.4678 20.4757 34.869 20.4784C37.369 20.4784 40.3802 21.5848 40.7303 26.5778L40.7653 26.5848ZM26.5428 32.4601L26.5708 32.4671C26.5723 32.2945 26.51 32.1274 26.3957 31.9979C25.4364 30.8985 24.9952 29.8971 25.1142 29.0708C25.1713 28.6105 25.3986 28.1883 25.7515 27.8873C26.6758 27.8873 29.9531 27.7122 32.0539 25.8985C34.4199 27.2587 37.0979 27.9825 39.827 27.9994C40.2962 27.9994 40.7723 27.9994 41.2695 27.9223C41.6128 28.2154 41.8369 28.6238 41.8998 29.0708C42.0188 29.8831 41.5777 30.8985 40.6183 31.9979C40.504 32.1274 40.4417 32.2945 40.4432 32.4671C40.4432 32.4671 40.4432 32.6072 40.4432 32.8312L36.3676 35.0161C35.5588 34.2503 34.2823 34.2853 33.5166 35.0941C32.7508 35.9029 32.7857 37.1794 33.5945 37.9452C34.4034 38.7109 35.6799 38.676 36.4456 37.8672C36.8005 37.4924 36.9981 36.9958 36.9979 36.4797C37.001 36.4166 37.001 36.3536 36.9979 36.2906L40.2121 34.5679C39.9362 35.9488 39.2872 37.2276 38.3354 38.2654C37.094 39.4606 35.4136 40.0891 33.6926 40.0021H33.3424C31.6251 40.0873 29.9484 39.4618 28.7066 38.2724C26.4938 36.0665 26.5428 32.4951 26.5428 32.4601ZM35.5973 36.4797C35.5973 36.8239 35.3183 37.1029 34.9741 37.1029C34.6299 37.1029 34.3508 36.8239 34.3508 36.4797C34.3508 36.1355 34.6299 35.8564 34.9741 35.8564C35.3183 35.8564 35.5973 36.1355 35.5973 36.4797ZM32.7962 49.7849H16.4238C16.9771 44.5258 25.5274 42.327 28.2024 41.7597V43.0132C28.2024 44.6028 30.1352 45.8143 32.7962 46.0174V49.7849ZM29.603 43.0132V42.9922V40.5973C30.767 41.1371 32.0385 41.4053 33.3214 41.3816H33.6716C34.9545 41.4053 36.226 41.1371 37.39 40.5973V43.0132C37.39 43.6785 35.8704 44.6379 33.4965 44.6379C31.1226 44.6379 29.603 43.6785 29.603 43.0132ZM34.1968 49.8059V46.0104C36.8578 45.8283 38.7906 44.6099 38.7906 43.0062V41.7807C41.4866 42.341 49.9949 44.5398 50.5692 49.8059H34.1968Z" fill="white"/>
</g>
<defs>
<clipPath id="clip0">
<rect width="37" height="37" fill="white" transform="translate(15 15)"/>
</clipPath>
</defs>
</svg>
