<svg width="67" height="67" viewBox="0 0 67 67" fill="none" xmlns="http://www.w3.org/2000/svg">
<circle cx="33.5" cy="33.5" r="33.5" fill="#0036C2"/>
<path d="M45.0715 20H21.9285C20.8652 20 20 20.8652 20 21.9285V26.9287V29.4575V37.5425V40.0713V45.0715C20 46.1348 20.8652 47 21.9285 47H45.0714C46.1348 47 47 46.1348 47 45.0715V21.9285C47 20.8652 46.1348 20 45.0715 20ZM21.2857 27.5715H24.333V28.8147H21.2857V27.5715ZM21.2857 30.1004H23.1179V36.8996H21.2857V30.1004ZM21.2857 38.1853H24.333V39.4285H21.2857V38.1853ZM45.7143 45.0715C45.7143 45.4259 45.4259 45.7143 45.0715 45.7143H21.9285C21.5741 45.7143 21.2857 45.4259 21.2857 45.0715V40.7142H23.1179V42.95C23.1179 43.4639 23.5361 43.8821 24.05 43.8821H42.95C43.4639 43.8821 43.8821 43.4639 43.8821 42.95V24.05C43.8821 23.5361 43.4639 23.1179 42.95 23.1179H24.05C23.5361 23.1179 23.1179 23.5361 23.1179 24.05V26.2858H21.2857V21.9285C21.2857 21.5741 21.5741 21.2857 21.9285 21.2857H45.0714C45.4259 21.2857 45.7142 21.5741 45.7142 21.9285V45.0715H45.7143ZM24.9759 36.8996H24.3393V30.1004H24.9759C25.3309 30.1004 25.6187 29.8125 25.6187 29.4575V26.9287C25.6187 26.5737 25.3309 26.2859 24.9759 26.2859H24.3393V24.3393H42.6608V42.6608H24.3393V40.7142H24.9759C25.3309 40.7142 25.6187 40.4263 25.6187 40.0713V37.5425C25.6187 37.1875 25.3309 36.8996 24.9759 36.8996Z" fill="white"/>
<path d="M37.9547 29.0452C35.4983 26.5889 31.5015 26.5889 29.0452 29.0452C26.5888 31.5016 26.5888 35.4984 29.0452 37.9548C30.2733 39.183 31.8866 39.7971 33.4999 39.7971C35.1132 39.7971 36.7264 39.1829 37.9547 37.9548C40.411 35.4984 40.411 31.5016 37.9547 29.0452ZM38.6067 32.9213H36.9932V32.9214C36.9055 32.3851 36.6964 31.8802 36.3792 31.439L37.522 30.2962C38.1401 31.0711 38.5014 31.9842 38.6067 32.9213ZM34.0784 28.3933C35.0156 28.4985 35.9288 28.8598 36.7037 29.4779L35.5609 30.6208C35.1197 30.3036 34.6147 30.0944 34.0784 30.0068V28.3933ZM32.9213 28.3932V30.0067C32.3851 30.0944 31.8801 30.3035 31.4389 30.6208L30.2961 29.4779C31.071 28.8598 31.9841 28.4985 32.9213 28.3932ZM29.4778 30.2962L30.6206 31.439C30.3035 31.8802 30.0943 32.3851 30.0066 32.9214H28.3931C28.4984 31.9843 28.8597 31.0711 29.4778 30.2962ZM28.3931 34.0785H30.0066C30.0943 34.6148 30.3034 35.1198 30.6206 35.561L29.4778 36.7038C28.8597 35.9289 28.4984 35.0157 28.3931 34.0785ZM32.9213 38.6068C31.9842 38.5015 31.071 38.1402 30.2961 37.522L31.4389 36.3792C31.8801 36.6964 32.3851 36.9056 32.9213 36.9933V38.6068ZM31.8142 35.1855C31.364 34.7354 31.116 34.1368 31.116 33.5C31.116 32.8632 31.364 32.2646 31.8142 31.8144C32.2645 31.3642 32.8631 31.1162 33.4999 31.1162C34.1367 31.1162 34.7352 31.3642 35.1854 31.8144C35.6357 32.2646 35.8836 32.8632 35.8836 33.5C35.8836 34.1368 35.6357 34.7354 35.1854 35.1855C34.7352 35.6358 34.1366 35.8837 33.4999 35.8837C32.8632 35.8837 32.2645 35.6358 31.8142 35.1855ZM34.0784 38.6068V36.9933C34.6147 36.9056 35.1197 36.6965 35.5609 36.3793L36.7037 37.5221C35.9288 38.1403 35.0156 38.5016 34.0784 38.6068ZM37.5219 36.7037L36.3791 35.5609C36.6963 35.1197 36.9055 34.6147 36.9931 34.0785H38.6066C38.5014 35.0157 38.1401 35.9289 37.5219 36.7037Z" fill="white"/>
</svg>
