<svg width="21" height="20" viewBox="0 0 21 20" fill="none" xmlns="http://www.w3.org/2000/svg">
<g clip-path="url(#clip0)">
<path d="M19.0067 9.99324L18.0993 9.87961C17.8234 9.20469 17.4271 8.58039 16.9345 8.04024L17.6017 5.21391C17.6291 5.09774 17.6019 4.97543 17.5278 4.88184C17.4538 4.78825 17.341 4.73364 17.2217 4.73356L17.1363 4.73352C17.1358 4.73352 17.1355 4.73352 17.135 4.73352C16.0275 4.73352 15.0294 5.43032 14.6368 6.45235C14.3592 6.342 14.0738 6.2511 13.7827 6.18223C13.5727 6.13258 13.3623 6.26246 13.3126 6.47246C13.263 6.68243 13.3929 6.89285 13.6029 6.9425C14.5972 7.1777 15.4842 7.68051 16.1833 8.37828C16.2089 8.4157 16.2407 8.44883 16.2781 8.47563C16.7878 9.01055 17.1906 9.65234 17.452 10.3716C17.502 10.5094 17.6251 10.6076 17.7705 10.6258L18.9097 10.7684C19.0878 10.7907 19.222 10.9428 19.222 11.1223V13.0917C19.222 13.2712 19.0877 13.4233 18.9097 13.4456L17.8541 13.5778C17.7023 13.5968 17.5755 13.7027 17.5298 13.8487C17.2166 14.8493 16.6216 15.7341 15.809 16.4074C15.7195 16.4816 15.6676 16.5919 15.6676 16.7082V18.8673C15.6676 19.0611 15.51 19.2187 15.3162 19.2187H13.0503C12.8565 19.2187 12.6989 19.0611 12.6989 18.8673V18.0444C12.6989 17.8287 12.524 17.6538 12.3082 17.6538H9.02646C8.81076 17.6538 8.63583 17.8287 8.63583 18.0444V18.8673C8.63583 19.0611 8.47818 19.2187 8.28439 19.2187H6.01846C5.82471 19.2187 5.66705 19.0611 5.66705 18.8673V17.3427C5.66705 17.1995 5.58865 17.0678 5.46279 16.9994C3.70959 16.0476 2.62042 14.2182 2.62042 12.2253C2.62042 9.23207 5.05561 6.79688 8.04888 6.79688H8.53837C8.75408 6.79688 8.929 6.622 8.929 6.40625C8.929 6.19051 8.75408 6.01563 8.53837 6.01563H8.04888C5.1492 6.01563 2.7076 8.01356 2.02772 10.7051H1.74151C1.21378 10.7051 0.784483 10.2757 0.784483 9.74805C0.784483 9.22035 1.21378 8.79102 1.74151 8.79102C1.95722 8.79102 2.13214 8.61613 2.13214 8.40039C2.13214 8.18465 1.95722 8.00977 1.74151 8.00977C0.783038 8.00977 0.00323486 8.78953 0.00323486 9.74805C0.00323486 10.7066 0.783038 11.4863 1.74151 11.4863H1.88335C1.85444 11.7287 1.83917 11.9753 1.83917 12.2253C1.83917 14.4265 3.00065 16.4532 4.88576 17.5701V18.8673C4.88576 19.4919 5.39389 20 6.01842 20H8.28431C8.90888 20 9.417 19.4919 9.417 18.8673V18.4351H11.9175V18.8673C11.9175 19.4919 12.4257 20 13.0502 20H15.3161C15.9407 20 16.4488 19.4919 16.4488 18.8673V16.8883C17.2419 16.1907 17.8404 15.3109 18.1946 14.3225L19.0066 14.2208C19.5748 14.1497 20.0032 13.6643 20.0032 13.0917V11.1223C20.0032 10.5498 19.5748 10.0643 19.0067 9.99324ZM16.2785 7.41864C15.9871 7.18028 15.675 6.9691 15.3467 6.78778C15.5625 6.16766 16.0889 5.70625 16.7167 5.56219L16.2785 7.41864Z" fill="black"/>
<path d="M15.5528 9.91914C15.4802 9.84648 15.3794 9.80469 15.2767 9.80469C15.174 9.80469 15.0732 9.84648 15.0005 9.91914C14.9279 9.9918 14.8861 10.0926 14.8861 10.1953C14.8861 10.298 14.9278 10.3988 15.0005 10.4715C15.0732 10.5441 15.174 10.5859 15.2767 10.5859C15.3794 10.5859 15.4802 10.5441 15.5528 10.4715C15.6255 10.3988 15.6673 10.298 15.6673 10.1953C15.6673 10.0926 15.6255 9.9918 15.5528 9.91914Z" fill="black"/>
<path d="M11.458 2.27863C11.2423 2.27863 11.0674 2.45351 11.0674 2.66925V4.21866C11.0674 4.4344 11.2423 4.60929 11.458 4.60929C11.6737 4.60929 11.8486 4.4344 11.8486 4.21866V2.66925C11.8486 2.45355 11.6737 2.27863 11.458 2.27863Z" fill="black"/>
<path d="M11.7341 0.975781C11.6615 0.903125 11.5607 0.861328 11.4579 0.861328C11.3552 0.861328 11.2544 0.903125 11.1818 0.975781C11.1091 1.04844 11.0673 1.14922 11.0673 1.25195C11.0673 1.35508 11.1091 1.45547 11.1818 1.52812C11.2544 1.60078 11.3552 1.64258 11.4579 1.64258C11.5607 1.64258 11.6615 1.60078 11.7341 1.52812C11.8067 1.45547 11.8486 1.35469 11.8486 1.25195C11.8486 1.14922 11.8067 1.04883 11.7341 0.975781Z" fill="black"/>
<path d="M8.28447 0C8.06877 0 7.89384 0.174883 7.89384 0.390624V1.05469C7.89384 1.27043 8.06877 1.44531 8.28447 1.44531C8.50017 1.44531 8.67509 1.27043 8.67509 1.05469V0.390624C8.67509 0.174883 8.50021 0 8.28447 0Z" fill="black"/>
<path d="M4.45393 12.2253C4.45393 12.0096 4.27901 11.8347 4.06331 11.8347C3.84761 11.8347 3.67268 12.0096 3.67268 12.2253L3.67272 12.2461C3.67405 12.461 3.8487 12.6343 4.06331 12.6343C4.06409 12.6343 4.06491 12.6343 4.06577 12.6343C4.28147 12.6329 4.4553 12.4569 4.45397 12.2412L4.45393 12.2253Z" fill="black"/>
<path d="M6.18302 15.2988C5.504 14.8856 4.97396 14.2507 4.6906 13.5111C4.61337 13.3096 4.38747 13.2089 4.18607 13.2861C3.98462 13.3633 3.88388 13.5892 3.96107 13.7907C4.30599 14.6909 4.95087 15.4635 5.77692 15.9662C5.84036 16.0048 5.9104 16.0232 5.97958 16.0232C6.11142 16.0232 6.24013 15.9564 6.31368 15.8356C6.42583 15.6513 6.36727 15.411 6.18302 15.2988Z" fill="black"/>
<path d="M8.28447 1.87701C7.37982 1.87701 6.64384 2.61299 6.64384 3.51764C6.64384 4.42228 7.37982 5.15826 8.28447 5.15826C9.18911 5.15826 9.92509 4.42228 9.92509 3.51764C9.92509 2.61299 9.18911 1.87701 8.28447 1.87701ZM8.28447 4.37701C7.8106 4.37701 7.42509 3.9915 7.42509 3.51764C7.42509 3.04377 7.8106 2.65826 8.28447 2.65826C8.75833 2.65826 9.14384 3.04377 9.14384 3.51764C9.14384 3.9915 8.75833 4.37701 8.28447 4.37701Z" fill="black"/>
<path d="M13.2063 8.28124H12.8548C13.0092 8.03113 13.0986 7.73679 13.0986 7.42187C13.0986 6.51723 12.3626 5.78125 11.458 5.78125C10.5533 5.78125 9.81736 6.51723 9.81736 7.42187C9.81732 7.73679 9.90669 8.03113 10.0611 8.28124H8.12822C7.91252 8.28124 7.73759 8.45613 7.73759 8.67187C7.73759 8.88761 7.91252 9.06249 8.12822 9.06249H13.2063C13.422 9.06249 13.597 8.88761 13.597 8.67187C13.597 8.45613 13.4221 8.28124 13.2063 8.28124ZM11.458 8.28124C10.9841 8.28124 10.5986 7.89574 10.5986 7.42187C10.5986 6.94801 10.9841 6.5625 11.458 6.5625C11.9318 6.5625 12.3174 6.94801 12.3174 7.42187C12.3174 7.89574 11.9318 8.28124 11.458 8.28124Z" fill="black"/>
</g>
<defs>
<clipPath id="clip0">
<rect width="20" height="20" fill="white" transform="translate(0.00323486)"/>
</clipPath>
</defs>
</svg>
